<?xml version="1.0" encoding="utf-8"?>
<!-- Generator: Adobe Illustrator 22.0.1, SVG Export Plug-In . SVG Version: 6.00 Build 0)  -->
<svg version="1.1" id="Layer_1" xmlns="http://www.w3.org/2000/svg" xmlns:xlink="http://www.w3.org/1999/xlink" x="0px" y="0px"
	 viewBox="0 0 100 80" style="enable-background:new 0 0 100 80;" xml:space="preserve">
<style type="text/css">
	.st0{fill:#0000CC;}
</style>
<g>
	<path class="st0" d="M31.5,41l-2.1,1.2c-0.8,0.5-1,0.6-1.8,1.1c-1.6,0.9-2,0.2-2-0.4l0-2.2c0.2,0.2,0.4,0.3,0.7,0.3
		C26.3,41,31.5,41,31.5,41z M27.5,36.6l2,1.2l2,1.2h-5.1c-0.3,0-0.5,0.1-0.7,0.3l0-2C25.6,36.7,25.9,35.7,27.5,36.6z"/>
	<path class="st0" d="M55,19.9c5.5,0,10.6,2.2,14.2,5.9C72.8,29.4,75,34.5,75,40c0,5.5-2.2,10.6-5.9,14.2s-8.7,5.9-14.2,5.9
		c-5.5,0-10.6-2.2-14.2-5.9c-3.4-3.4-5.6-8-5.9-13.2h0.6c0.3,5,2.4,9.5,5.7,12.8c3.5,3.5,8.4,5.7,13.8,5.7s10.3-2.2,13.8-5.7
		c3.5-3.5,5.7-8.4,5.7-13.8s-2.2-10.3-5.7-13.8c-3.5-3.5-8.4-5.7-13.8-5.7s-10.3,2.2-13.8,5.7c-3.3,3.3-5.4,7.8-5.7,12.7h-0.6
		c0.3-5.1,2.5-9.7,5.9-13.1C44.4,22.2,49.4,19.9,55,19.9"/>
	<path class="st0" d="M38.2,38.9c0.3-4.2,2.1-8,4.9-10.8c3-3,7.2-4.9,11.9-4.9s8.8,1.9,11.9,4.9c3,3,4.9,7.2,4.9,11.9
		s-1.9,8.8-4.9,11.9c-3,3-7.2,4.9-11.9,4.9s-8.8-1.9-11.9-4.9c-2.8-2.8-4.6-6.6-4.9-10.8h0.6c0.3,4.1,2,7.7,4.7,10.4
		c2.9,2.9,7,4.8,11.5,4.8s8.5-1.8,11.5-4.8c2.9-2.9,4.8-7,4.8-11.5s-1.8-8.5-4.8-11.5c-2.9-2.9-7-4.8-11.5-4.8s-8.5,1.8-11.5,4.8
		c-2.7,2.7-4.5,6.3-4.7,10.4L38.2,38.9L38.2,38.9z"/>
	<path class="st0" d="M55,53.5c-3.7,0-7.1-1.5-9.5-3.9c-2.2-2.2-3.7-5.2-3.9-8.5h0.6c0.2,3.2,1.6,6,3.7,8.1c2.3,2.3,5.6,3.8,9.1,3.8
		c3.6,0,6.8-1.4,9.1-3.8c2.3-2.3,3.8-5.6,3.8-9.1c0-3.6-1.4-6.8-3.8-9.1c-2.3-2.3-5.6-3.8-9.1-3.8c-3.6,0-6.8,1.4-9.1,3.8
		c-2.1,2.1-3.5,4.9-3.7,8.1h-0.6c0.3-3.3,1.7-6.3,3.9-8.5c2.4-2.4,5.8-3.9,9.5-3.9c3.7,0,7.1,1.5,9.5,3.9c2.4,2.4,3.9,5.8,3.9,9.5
		c0,3.7-1.5,7.1-3.9,9.5C62.1,52,58.7,53.5,55,53.5"/>
	<path class="st0" d="M65.1,40c0,2.8-1.1,5.4-3,7.2c-1.8,1.8-4.4,3-7.2,3s-5.4-1.1-7.2-3c-1.6-1.6-2.7-3.8-2.9-6.2h0.6
		c0.2,2.2,1.2,4.3,2.8,5.8c1.7,1.7,4.1,2.8,6.8,2.8c2.7,0,5.1-1.1,6.8-2.8c1.7-1.7,2.8-4.1,2.8-6.8c0-2.7-1.1-5.1-2.8-6.8
		c-1.7-1.7-4.1-2.8-6.8-2.8c-2.7,0-5.1,1.1-6.8,2.8c-1.5,1.5-2.5,3.5-2.8,5.7h-0.6c0.2-2.4,1.3-4.5,2.9-6.1c1.8-1.8,4.4-3,7.2-3
		s5.4,1.1,7.2,3C64,34.6,65.1,37.2,65.1,40"/>
	<path class="st0" d="M55,33.1c1.9,0,3.6,0.8,4.9,2c1.2,1.2,2,3,2,4.9s-0.8,3.6-2,4.9c-1.2,1.2-3,2-4.9,2c-1.9,0-3.6-0.8-4.9-2
		c-1-1-1.7-2.3-1.9-3.8h0.6c0.2,1.3,0.9,2.5,1.8,3.4c1.1,1.1,2.7,1.8,4.5,1.8s3.3-0.7,4.5-1.8c1.1-1.1,1.8-2.7,1.8-4.5
		s-0.7-3.3-1.8-4.5c-1.1-1.1-2.7-1.9-4.5-1.9c-1.7,0-3.3,0.7-4.5,1.9c-0.9,0.9-1.5,2.1-1.8,3.4h-0.6c0.2-1.5,0.9-2.8,1.9-3.8
		C51.3,33.9,53.1,33.1,55,33.1"/>
	<path class="st0" d="M51.5,38.9c0.2-0.6,0.5-1.1,0.9-1.5c0.6-0.6,1.5-1,2.5-1c1,0,1.9,0.4,2.5,1s1,1.5,1,2.5c0,1-0.4,1.9-1,2.5
		c-0.7,0.6-1.5,1-2.5,1s-1.9-0.4-2.5-1c-0.4-0.4-0.7-0.9-0.9-1.5h0.6c0.2,0.4,0.4,0.8,0.7,1.1c0.5,0.5,1.3,0.9,2.1,0.9
		s1.6-0.3,2.1-0.9c0.5-0.5,0.9-1.3,0.9-2.1s-0.3-1.6-0.9-2.1C56.5,37.3,55.8,37,55,37s-1.6,0.3-2.1,0.9c-0.3,0.3-0.5,0.7-0.7,1.1
		C52.1,38.9,51.5,38.9,51.5,38.9z"/>
	<path class="st0" d="M53,41L40.2,52.9l1,1.4l14.3-13.5c-0.2,0.2-0.4,0.3-0.7,0.3C54.8,41,53,41,53,41z"/>
	<path class="st0" d="M54.8,39.2H26.3c-0.2,0-0.4,0.1-0.5,0.2c-0.1,0.1-0.2,0.3-0.2,0.5c0,0.2,0.1,0.4,0.2,0.5
		c0.1,0.1,0.3,0.2,0.5,0.2h28.5c0.2,0,0.4-0.1,0.5-0.2c0.1-0.1,0.2-0.3,0.2-0.5s-0.1-0.4-0.2-0.5C55.2,39.3,55,39.2,54.8,39.2
		 M26.3,38.6h28.5c0.4,0,0.7,0.2,0.9,0.4c0.2,0.2,0.4,0.6,0.4,0.9s-0.2,0.7-0.4,0.9c-0.2,0.2-0.6,0.4-0.9,0.4H26.3
		c-0.4,0-0.7-0.2-0.9-0.4C25.1,40.7,25,40.3,25,40s0.1-0.7,0.4-0.9C25.6,38.8,25.9,38.6,26.3,38.6z"/>
</g>
</svg>
