<?xml version="1.0" encoding="utf-8"?>
<!-- Generator: Adobe Illustrator 22.0.0, SVG Export Plug-In . SVG Version: 6.00 Build 0)  -->
<svg version="1.1" id="Layer_1" xmlns="http://www.w3.org/2000/svg" xmlns:xlink="http://www.w3.org/1999/xlink" x="0px" y="0px"
	 viewBox="0 0 100 80" enable-background="new 0 0 100 80" xml:space="preserve">
<g>
	<path fill-rule="evenodd" clip-rule="evenodd" d="M31.523,41.031l-2.077,1.198c-0.846,0.488-0.983,0.639-1.829,1.126
		c-1.578,0.91-2.023,0.196-2.023-0.439l0.001-2.15c0.186,0.165,0.429,0.265,0.695,0.265H31.523z M27.454,36.628l1.995,1.154
		l1.989,1.15h-5.147c-0.266,0-0.509,0.1-0.695,0.264l0.001-1.979C25.597,36.673,25.858,35.705,27.454,36.628z"/>
	<path d="M54.96,19.917c5.545,0,10.567,2.248,14.201,5.882c3.634,3.634,5.882,8.656,5.882,14.201c0,5.546-2.248,10.567-5.882,14.201
		c-3.634,3.634-8.656,5.882-14.201,5.882c-5.546,0-10.567-2.248-14.201-5.882c-3.408-3.407-5.597-8.034-5.856-13.17h0.568
		c0.259,4.979,2.384,9.464,5.689,12.769c3.531,3.532,8.411,5.716,13.8,5.716c5.389,0,10.269-2.185,13.8-5.716
		c3.532-3.531,5.716-8.411,5.716-13.8s-2.185-10.269-5.716-13.8c-3.531-3.532-8.411-5.716-13.8-5.716
		c-5.389,0-10.269,2.185-13.8,5.716c-3.297,3.296-5.419,7.768-5.687,12.731h-0.568c0.268-5.12,2.455-9.733,5.854-13.132
		C44.393,22.165,49.414,19.917,54.96,19.917"/>
	<path d="M38.209,38.931c0.265-4.209,2.081-7.997,4.882-10.799c3.037-3.037,7.233-4.916,11.868-4.916
		c4.635,0,8.831,1.879,11.868,4.916c3.037,3.037,4.916,7.233,4.916,11.868c0,4.635-1.879,8.831-4.916,11.868
		c-3.037,3.037-7.233,4.916-11.868,4.916c-4.635,0-8.831-1.879-11.868-4.916c-2.81-2.81-4.628-6.613-4.884-10.836h0.568
		c0.255,4.068,2.01,7.728,4.717,10.436c2.934,2.934,6.989,4.75,11.467,4.75c4.478,0,8.533-1.815,11.467-4.75
		c2.934-2.934,4.75-6.989,4.75-11.467s-1.815-8.533-4.75-11.467c-2.934-2.934-6.989-4.75-11.467-4.75
		c-4.478,0-8.533,1.815-11.467,4.75c-2.699,2.699-4.451,6.346-4.715,10.398H38.209z"/>
	<path d="M54.96,53.484c-3.724,0-7.095-1.51-9.535-3.949c-2.212-2.212-3.66-5.191-3.91-8.503h0.569
		c0.249,3.156,1.633,5.993,3.742,8.102c2.337,2.337,5.567,3.783,9.134,3.783c3.567,0,6.796-1.446,9.134-3.783
		c2.337-2.337,3.783-5.567,3.783-9.134c0-3.567-1.446-6.796-3.783-9.134c-2.337-2.337-5.567-3.783-9.134-3.783
		c-3.567,0-6.797,1.446-9.134,3.783c-2.101,2.102-3.482,4.924-3.739,8.065h-0.569c0.259-3.297,1.703-6.262,3.907-8.466
		c2.44-2.44,5.811-3.949,9.535-3.949c3.723,0,7.094,1.509,9.535,3.949c2.44,2.44,3.949,5.812,3.949,9.535
		c0,3.724-1.509,7.095-3.949,9.535C62.054,51.974,58.683,53.484,54.96,53.484"/>
	<path d="M65.144,40c0,2.812-1.14,5.359-2.983,7.201c-1.842,1.843-4.389,2.983-7.201,2.983c-2.812,0-5.359-1.14-7.201-2.983
		c-1.615-1.614-2.69-3.769-2.931-6.17h0.57c0.239,2.244,1.25,4.257,2.762,5.769c1.74,1.74,4.145,2.817,6.8,2.817
		c2.656,0,5.06-1.077,6.8-2.817c1.74-1.74,2.817-4.145,2.817-6.8c0-2.656-1.077-5.06-2.817-6.8c-1.74-1.74-4.145-2.817-6.8-2.817
		c-2.656,0-5.06,1.077-6.8,2.817c-1.503,1.503-2.511,3.502-2.758,5.731h-0.57c0.249-2.385,1.321-4.526,2.927-6.132
		c1.843-1.843,4.389-2.983,7.201-2.983c2.812,0,5.359,1.14,7.201,2.983C64.004,34.641,65.144,37.188,65.144,40"/>
	<path d="M54.96,33.116c1.901,0,3.622,0.771,4.868,2.017c1.246,1.245,2.017,2.967,2.017,4.868s-0.771,3.622-2.017,4.868
		c-1.245,1.245-2.967,2.016-4.868,2.016c-1.9,0-3.622-0.771-4.868-2.016c-1.016-1.016-1.716-2.349-1.939-3.837h0.574
		c0.218,1.332,0.853,2.523,1.766,3.436c1.143,1.143,2.723,1.85,4.467,1.85c1.744,0,3.324-0.707,4.467-1.85
		c1.143-1.143,1.85-2.723,1.85-4.467c0-1.744-0.708-3.324-1.85-4.467c-1.143-1.143-2.723-1.851-4.467-1.851
		c-1.745,0-3.324,0.708-4.467,1.851c-0.904,0.904-1.536,2.082-1.76,3.398h-0.574c0.23-1.473,0.926-2.792,1.934-3.799
		C51.337,33.887,53.059,33.116,54.96,33.116"/>
	<path d="M51.538,38.931c0.175-0.559,0.483-1.06,0.888-1.465c0.648-0.649,1.544-1.05,2.534-1.05c0.989,0,1.886,0.402,2.534,1.05
		c0.648,0.648,1.05,1.545,1.05,2.534c0,0.99-0.402,1.886-1.05,2.535c-0.65,0.648-1.546,1.05-2.534,1.05
		c-0.988,0-1.884-0.401-2.533-1.05c-0.414-0.415-0.727-0.929-0.9-1.503h0.596c0.152,0.419,0.394,0.794,0.702,1.102
		c0.546,0.546,1.301,0.884,2.135,0.884c0.834,0,1.589-0.338,2.134-0.883c0.546-0.547,0.884-1.302,0.884-2.135
		s-0.338-1.588-0.884-2.134c-0.546-0.546-1.301-0.884-2.134-0.884s-1.588,0.338-2.134,0.884c-0.299,0.299-0.536,0.661-0.689,1.065
		H51.538z"/>
	<path fill-rule="evenodd" clip-rule="evenodd" d="M52.98,41.031L40.232,52.859l1.011,1.421l14.252-13.522
		c-0.187,0.17-0.434,0.273-0.705,0.273H52.98z"/>
	<path d="M54.79,39.214h-28.5c-0.211,0-0.402,0.086-0.541,0.224c-0.139,0.14-0.225,0.332-0.225,0.542
		c0,0.211,0.086,0.402,0.224,0.541c0.14,0.139,0.332,0.225,0.543,0.225h28.5c0.211,0,0.402-0.086,0.541-0.224
		c0.139-0.14,0.225-0.332,0.225-0.543c0-0.211-0.086-0.402-0.224-0.541C55.192,39.3,55.001,39.214,54.79,39.214 M26.291,38.648h28.5
		c0.366,0,0.699,0.15,0.941,0.391c0.242,0.243,0.393,0.576,0.393,0.942c0,0.366-0.15,0.7-0.391,0.941
		c-0.243,0.242-0.576,0.393-0.942,0.393h-28.5c-0.366,0-0.7-0.15-0.941-0.392c-0.242-0.243-0.393-0.576-0.393-0.942
		c0-0.366,0.15-0.7,0.392-0.941C25.591,38.798,25.925,38.648,26.291,38.648z"/>
</g>
</svg>
