<?xml version="1.0" encoding="utf-8"?>
<!-- Generator: Adobe Illustrator 22.0.0, SVG Export Plug-In . SVG Version: 6.00 Build 0)  -->
<svg version="1.1" id="Layer_1" xmlns="http://www.w3.org/2000/svg" xmlns:xlink="http://www.w3.org/1999/xlink" x="0px" y="0px"
	 viewBox="0 0 100 80" enable-background="new 0 0 100 80" xml:space="preserve">
<g>
	<path fill-rule="evenodd" clip-rule="evenodd" d="M68.977,37.684v18.35H28.972v-2.193h37.333V38.11
		c0.12,0.008,0.241,0.011,0.362,0.011C67.484,38.121,68.26,37.955,68.977,37.684 M66.305,26.442h2.671v2.749
		c-0.729-0.262-1.507-0.421-2.309-0.421c-0.122,0-0.243,0.004-0.362,0.011V26.442z"/>
	<path d="M26.301,23.966h40.288v4.805c-0.191,0.003-0.38,0.015-0.567,0.035v-4.273H26.584v29.026h39.438V38.085
		c0.187,0.02,0.376,0.032,0.567,0.035v16.005H26.017v-30.16H26.301z"/>
	<path d="M67.935,29.188c-0.411-0.087-0.835-0.135-1.267-0.135c-1.407,0-2.697,0.539-3.763,1.249
		c-1.751,1.166-2.889,2.751-2.983,3.2l0.001,0.004c-0.001,0.336,0.6,1.195,1.581,2.078c1.008,0.908,2.403,1.8,3.954,2.125
		c0.393,0.082,0.798,0.128,1.211,0.128c1.444,0,2.758-0.544,3.837-1.262c1.698-1.131,2.799-2.657,2.91-3.188l0.002-0.028
		c0-0.396-0.596-1.253-1.565-2.112C70.852,30.363,69.47,29.51,67.935,29.188 M66.668,28.486c0.469,0,0.932,0.053,1.382,0.148
		c1.642,0.345,3.114,1.251,4.175,2.191c1.089,0.965,1.758,2,1.758,2.535c0,0.047-0.005,0.095-0.015,0.142
		c-0.128,0.615-1.327,2.331-3.151,3.546c-1.16,0.772-2.579,1.357-4.149,1.357c-0.449,0-0.893-0.051-1.326-0.141
		c-1.663-0.348-3.149-1.295-4.218-2.258c-1.096-0.987-1.768-2.032-1.768-2.499c-0.001-0.041,0.003-0.081,0.011-0.12
		c0.111-0.523,1.348-2.307,3.225-3.556C63.74,29.067,65.134,28.486,66.668,28.486z"/>
	<path fill-rule="evenodd" clip-rule="evenodd" d="M64.99,32.383c1.116,0,2.021,0.904,2.021,2.02s-0.905,2.021-2.021,2.021
		c-1.116,0-2.02-0.905-2.02-2.021S63.874,32.383,64.99,32.383"/>
	<path fill-rule="evenodd" clip-rule="evenodd" d="M37.398,26.707c0.61,0,1.104,0.494,1.104,1.104c0,0.61-0.494,1.104-1.104,1.104
		c-0.61,0-1.104-0.494-1.104-1.104C36.294,27.201,36.788,26.707,37.398,26.707"/>
	<path fill-rule="evenodd" clip-rule="evenodd" d="M54.592,26.707c0.61,0,1.104,0.494,1.104,1.104c0,0.61-0.494,1.104-1.104,1.104
		c-0.61,0-1.104-0.494-1.104-1.104C53.488,27.201,53.982,26.707,54.592,26.707"/>
	<path d="M30.67,38.624c-0.156,0-0.283-0.127-0.283-0.283c0-0.157,0.127-0.284,0.283-0.284h30.62c0.156,0,0.283,0.127,0.283,0.284
		c0,0.156-0.127,0.283-0.283,0.283H30.67z"/>
	<path d="M30.67,45.303c-0.156,0-0.283-0.127-0.283-0.283c0-0.157,0.127-0.284,0.283-0.284h30.62c0.156,0,0.283,0.127,0.283,0.284
		c0,0.156-0.127,0.283-0.283,0.283H30.67z"/>
	<path d="M36.433,50.637c0,0.157-0.127,0.284-0.283,0.284c-0.156,0-0.283-0.127-0.283-0.284V32.552c0-0.156,0.127-0.283,0.283-0.283
		c0.156,0,0.283,0.127,0.283,0.283V50.637z"/>
	<path d="M43.146,50.637c0,0.157-0.127,0.284-0.283,0.284c-0.156,0-0.283-0.127-0.283-0.284V32.552c0-0.156,0.127-0.283,0.283-0.283
		c0.156,0,0.283,0.127,0.283,0.283V50.637z"/>
	<path d="M49.859,50.637c0,0.157-0.127,0.284-0.283,0.284c-0.157,0-0.284-0.127-0.284-0.284V32.552c0-0.156,0.127-0.283,0.284-0.283
		c0.156,0,0.283,0.127,0.283,0.283V50.637z"/>
	<path d="M56.572,50.637c0,0.157-0.127,0.284-0.283,0.284c-0.156,0-0.283-0.127-0.283-0.284V32.552c0-0.156,0.127-0.283,0.283-0.283
		c0.156,0,0.283,0.127,0.283,0.283V50.637z"/>
	<rect x="52.614" y="38.703" transform="matrix(0.7071 -0.7071 0.7071 0.7071 -13.9807 49.6122)" width="0.567" height="5.958"/>
	<rect x="49.918" y="41.399" transform="matrix(0.7071 -0.7071 0.7071 0.7071 -13.9808 49.6122)" width="5.958" height="0.567"/>
</g>
</svg>
