<?xml version="1.0" encoding="utf-8"?>
<!-- Generator: Adobe Illustrator 22.0.1, SVG Export Plug-In . SVG Version: 6.00 Build 0)  -->
<svg version="1.1" id="Layer_1" xmlns="http://www.w3.org/2000/svg" xmlns:xlink="http://www.w3.org/1999/xlink" x="0px" y="0px"
	 viewBox="0 0 100 80" style="enable-background:new 0 0 100 80;" xml:space="preserve">
<style type="text/css">
	.st0{fill:#0000CC;}
</style>
<g>
	<path class="st0" d="M69,37.7V56H29v-2.2h37.3V38.1c0.1,0,0.2,0,0.4,0C67.5,38.1,68.3,38,69,37.7 M66.3,26.4H69v2.7
		c-0.7-0.3-1.5-0.4-2.3-0.4c-0.1,0-0.2,0-0.4,0V26.4z"/>
	<path class="st0" d="M26.3,24h40.3v4.8c-0.2,0-0.4,0-0.6,0v-4.3H26.6v29H66V38.1c0.2,0,0.4,0,0.6,0v16H26V24L26.3,24L26.3,24z"/>
	<path class="st0" d="M67.9,29.2c-0.4-0.1-0.8-0.1-1.3-0.1c-1.4,0-2.7,0.5-3.8,1.2c-1.8,1.2-2.9,2.8-3,3.2l0,0
		c0,0.3,0.6,1.2,1.6,2.1c1,0.9,2.4,1.8,4,2.1c0.4,0.1,0.8,0.1,1.2,0.1c1.4,0,2.8-0.5,3.8-1.3c1.7-1.1,2.8-2.7,2.9-3.2l0,0
		c0-0.4-0.6-1.3-1.6-2.1C70.9,30.4,69.5,29.5,67.9,29.2 M66.7,28.5c0.5,0,0.9,0.1,1.4,0.1c1.6,0.3,3.1,1.3,4.2,2.2
		c1.1,1,1.8,2,1.8,2.5c0,0,0,0.1,0,0.1c-0.1,0.6-1.3,2.3-3.2,3.5c-1.2,0.8-2.6,1.4-4.1,1.4c-0.4,0-0.9-0.1-1.3-0.1
		c-1.7-0.3-3.1-1.3-4.2-2.3c-1.1-1-1.8-2-1.8-2.5c0,0,0-0.1,0-0.1c0.1-0.5,1.3-2.3,3.2-3.6C63.7,29.1,65.1,28.5,66.7,28.5z"/>
	<path class="st0" d="M65,32.4c1.1,0,2,0.9,2,2s-0.9,2-2,2c-1.1,0-2-0.9-2-2S63.9,32.4,65,32.4"/>
	<path class="st0" d="M37.4,26.7c0.6,0,1.1,0.5,1.1,1.1s-0.5,1.1-1.1,1.1s-1.1-0.5-1.1-1.1S36.8,26.7,37.4,26.7"/>
	<path class="st0" d="M54.6,26.7c0.6,0,1.1,0.5,1.1,1.1s-0.5,1.1-1.1,1.1s-1.1-0.5-1.1-1.1S54,26.7,54.6,26.7"/>
	<path class="st0" d="M30.7,38.6c-0.2,0-0.3-0.1-0.3-0.3c0-0.2,0.1-0.3,0.3-0.3h30.6c0.2,0,0.3,0.1,0.3,0.3c0,0.2-0.1,0.3-0.3,0.3
		H30.7z"/>
	<path class="st0" d="M30.7,45.3c-0.2,0-0.3-0.1-0.3-0.3c0-0.2,0.1-0.3,0.3-0.3h30.6c0.2,0,0.3,0.1,0.3,0.3c0,0.2-0.1,0.3-0.3,0.3
		H30.7z"/>
	<path class="st0" d="M36.4,50.6c0,0.2-0.1,0.3-0.3,0.3c-0.2,0-0.3-0.1-0.3-0.3V32.6c0-0.2,0.1-0.3,0.3-0.3c0.2,0,0.3,0.1,0.3,0.3
		V50.6z"/>
	<path class="st0" d="M43.1,50.6c0,0.2-0.1,0.3-0.3,0.3c-0.2,0-0.3-0.1-0.3-0.3V32.6c0-0.2,0.1-0.3,0.3-0.3c0.2,0,0.3,0.1,0.3,0.3
		V50.6z"/>
	<path class="st0" d="M49.9,50.6c0,0.2-0.1,0.3-0.3,0.3c-0.2,0-0.3-0.1-0.3-0.3V32.6c0-0.2,0.1-0.3,0.3-0.3c0.2,0,0.3,0.1,0.3,0.3
		V50.6z"/>
	<path class="st0" d="M56.6,50.6c0,0.2-0.1,0.3-0.3,0.3c-0.2,0-0.3-0.1-0.3-0.3V32.6c0-0.2,0.1-0.3,0.3-0.3c0.2,0,0.3,0.1,0.3,0.3
		V50.6z"/>
	<rect x="52.6" y="38.7" transform="matrix(0.7071 -0.7071 0.7071 0.7071 -13.9804 49.6117)" class="st0" width="0.6" height="6"/>
	<rect x="49.9" y="41.4" transform="matrix(0.7071 -0.7071 0.7071 0.7071 -13.9809 49.6119)" class="st0" width="6" height="0.6"/>
</g>
</svg>
