<?xml version="1.0" encoding="utf-8"?>
<!-- Generator: Adobe Illustrator 22.0.0, SVG Export Plug-In . SVG Version: 6.00 Build 0)  -->
<svg version="1.1" id="Layer_1" xmlns="http://www.w3.org/2000/svg" xmlns:xlink="http://www.w3.org/1999/xlink" x="0px" y="0px"
	 viewBox="0 0 100 80" enable-background="new 0 0 100 80" xml:space="preserve">
<g>
	<path d="M73.552,46.311c0.206,0.742,0.316,1.523,0.316,2.329c0,2.409-0.985,4.598-2.572,6.185
		c-1.587,1.587-3.776,2.572-6.185,2.572H34.889c-2.409,0-4.598-0.985-6.185-2.572c-1.587-1.587-2.572-3.776-2.572-6.185
		c0-0.806,0.11-1.587,0.316-2.329c-0.022,0.244-0.033,0.491-0.033,0.74v0.001c0,0.787,0.109,1.55,0.312,2.274
		c0.166,1.98,1.045,3.766,2.377,5.098c1.484,1.484,3.532,2.406,5.784,2.406h30.222c2.252,0,4.3-0.922,5.784-2.406
		c1.332-1.332,2.211-3.118,2.377-5.098c0.203-0.724,0.312-1.487,0.312-2.274v-0.001C73.585,46.802,73.573,46.555,73.552,46.311"/>
	<path d="M40.681,38.294h24.43c2.408,0,4.598,0.985,6.185,2.572c1.587,1.587,2.572,3.776,2.572,6.185
		c0,2.409-0.985,4.598-2.572,6.185c-1.587,1.587-3.776,2.572-6.185,2.572H34.889c-2.408,0-4.598-0.985-6.185-2.572
		c-1.587-1.587-2.572-3.776-2.572-6.185c0-2.409,0.985-4.598,2.572-6.185c1.173-1.174,2.676-2.018,4.353-2.378
		c-0.016,0.14-0.023,0.283-0.023,0.427c0,0.053,0.001,0.106,0.003,0.159c-1.513,0.353-2.868,1.128-3.933,2.193
		c-1.484,1.484-2.406,3.532-2.406,5.784c0,2.252,0.922,4.3,2.406,5.784c1.484,1.484,3.532,2.406,5.784,2.406h30.222
		c2.252,0,4.3-0.922,5.784-2.406c1.484-1.484,2.406-3.532,2.406-5.784c0-2.252-0.922-4.3-2.406-5.784
		c-1.484-1.484-3.532-2.406-5.784-2.406H40.731C40.728,38.668,40.711,38.479,40.681,38.294"/>
	<path d="M39.404,36.394c-0.645-0.644-1.537-1.044-2.522-1.044c-0.985,0-1.876,0.399-2.521,1.044
		c-0.644,0.645-1.043,1.537-1.043,2.521c0,0.985,0.399,1.876,1.043,2.521c0.646,0.644,1.537,1.044,2.521,1.044
		c0.985,0,1.877-0.399,2.521-1.043c0.645-0.646,1.044-1.538,1.044-2.522C40.448,37.93,40.049,37.038,39.404,36.394 M36.882,34.783
		c1.141,0,2.174,0.463,2.922,1.21c0.747,0.749,1.21,1.782,1.21,2.922c0,1.141-0.463,2.174-1.21,2.922
		c-0.749,0.747-1.782,1.21-2.922,1.21c-1.141,0-2.174-0.463-2.922-1.21c-0.747-0.749-1.21-1.781-1.21-2.922
		c0-1.141,0.463-2.174,1.21-2.922C34.709,35.246,35.742,34.783,36.882,34.783z"/>
	<path d="M51.39,31.254l-1.62-2.807l-3.241,5.613h6.481L51.39,31.254z M50.014,27.742l3.976,6.885h-8.442l4.22-7.309L50.014,27.742z
		"/>
	<path d="M65.692,23.17h-6.177v6.177h6.177V23.17z M59.232,22.603h7.027v7.311h-7.311v-7.311H59.232z"/>
	<path fill-rule="evenodd" clip-rule="evenodd" d="M36.882,42.814c2.126,0,3.849,1.723,3.849,3.848c0,2.125-1.723,3.848-3.849,3.848
		c-2.125,0-3.848-1.723-3.848-3.848C33.034,44.536,34.757,42.814,36.882,42.814"/>
	<polygon fill-rule="evenodd" clip-rule="evenodd" points="49.875,43.784 51.74,47.014 53.606,50.245 49.875,50.245 46.145,50.245 
		48.01,47.014 	"/>
	<rect x="59.232" y="43.448" fill-rule="evenodd" clip-rule="evenodd" width="6.744" height="6.744"/>
</g>
</svg>
