<?xml version="1.0" encoding="utf-8"?>
<!-- Generator: Adobe Illustrator 22.0.1, SVG Export Plug-In . SVG Version: 6.00 Build 0)  -->
<svg version="1.1" id="Layer_1" xmlns="http://www.w3.org/2000/svg" xmlns:xlink="http://www.w3.org/1999/xlink" x="0px" y="0px"
	 viewBox="0 0 100 80" style="enable-background:new 0 0 100 80;" xml:space="preserve">
<style type="text/css">
	.st0{fill:#0000CC;}
</style>
<g>
	<path class="st0" d="M73.6,46.3c0.2,0.7,0.3,1.5,0.3,2.3c0,2.4-1,4.6-2.6,6.2s-3.8,2.6-6.2,2.6H34.9c-2.4,0-4.6-1-6.2-2.6
		c-1.6-1.6-2.6-3.8-2.6-6.2c0-0.8,0.1-1.6,0.3-2.3c0,0.2,0,0.5,0,0.7v0c0,0.8,0.1,1.5,0.3,2.3c0.2,2,1,3.8,2.4,5.1
		c1.5,1.5,3.5,2.4,5.8,2.4h30.2c2.3,0,4.3-0.9,5.8-2.4c1.3-1.3,2.2-3.1,2.4-5.1c0.2-0.7,0.3-1.5,0.3-2.3v0
		C73.6,46.8,73.6,46.6,73.6,46.3"/>
	<path class="st0" d="M40.7,38.3h24.4c2.4,0,4.6,1,6.2,2.6c1.6,1.6,2.6,3.8,2.6,6.2s-1,4.6-2.6,6.2s-3.8,2.6-6.2,2.6H34.9
		c-2.4,0-4.6-1-6.2-2.6c-1.6-1.6-2.6-3.8-2.6-6.2s1-4.6,2.6-6.2c1.2-1.2,2.7-2,4.4-2.4c0,0.1,0,0.3,0,0.4c0,0.1,0,0.1,0,0.2
		c-1.5,0.4-2.9,1.1-3.9,2.2c-1.5,1.5-2.4,3.5-2.4,5.8s0.9,4.3,2.4,5.8s3.5,2.4,5.8,2.4h30.2c2.3,0,4.3-0.9,5.8-2.4
		c1.5-1.5,2.4-3.5,2.4-5.8s-0.9-4.3-2.4-5.8s-3.5-2.4-5.8-2.4H40.7C40.7,38.7,40.7,38.5,40.7,38.3"/>
	<path class="st0" d="M39.4,36.4c-0.6-0.6-1.5-1-2.5-1s-1.9,0.4-2.5,1c-0.6,0.6-1,1.5-1,2.5c0,1,0.4,1.9,1,2.5c0.6,0.6,1.5,1,2.5,1
		c1,0,1.9-0.4,2.5-1c0.6-0.6,1-1.5,1-2.5C40.4,37.9,40,37,39.4,36.4 M36.9,34.8c1.1,0,2.2,0.5,2.9,1.2c0.7,0.7,1.2,1.8,1.2,2.9
		c0,1.1-0.5,2.2-1.2,2.9C39.1,42.6,38,43,36.9,43c-1.1,0-2.2-0.5-2.9-1.2c-0.7-0.7-1.2-1.8-1.2-2.9c0-1.1,0.5-2.2,1.2-2.9
		C34.7,35.2,35.7,34.8,36.9,34.8z"/>
	<path class="st0" d="M51.4,31.3l-1.6-2.8l-3.2,5.6H53L51.4,31.3z M50,27.7l4,6.9h-8.4l4.2-7.3L50,27.7z"/>
	<path class="st0" d="M65.7,23.2h-6.2v6.2h6.2V23.2z M59.2,22.6h7v7.3h-7.3v-7.3H59.2z"/>
	<path class="st0" d="M36.9,42.8c2.1,0,3.8,1.7,3.8,3.8s-1.7,3.8-3.8,3.8c-2.1,0-3.8-1.7-3.8-3.8C33,44.5,34.8,42.8,36.9,42.8"/>
	<polygon class="st0" points="49.9,43.8 51.7,47 53.6,50.2 49.9,50.2 46.1,50.2 48,47 	"/>
	<rect x="59.2" y="43.4" class="st0" width="6.7" height="6.7"/>
</g>
</svg>
