<?xml version="1.0" encoding="utf-8"?>
<!-- Generator: Adobe Illustrator 22.0.0, SVG Export Plug-In . SVG Version: 6.00 Build 0)  -->
<svg version="1.1" id="Layer_1" xmlns="http://www.w3.org/2000/svg" xmlns:xlink="http://www.w3.org/1999/xlink" x="0px" y="0px"
	 viewBox="0 0 100 80" enable-background="new 0 0 100 80" xml:space="preserve">
<g>
	<path d="M40.472,26.604c-0.939-0.939-2.238-1.52-3.672-1.52c-1.434,0-2.732,0.581-3.672,1.52c-0.939,0.939-1.52,2.238-1.52,3.672
		c0,1.434,0.581,2.732,1.52,3.672c0.939,0.939,2.238,1.52,3.672,1.52c1.434,0,2.732-0.581,3.672-1.52
		c0.939-0.939,1.52-2.238,1.52-3.672C41.992,28.842,41.411,27.544,40.472,26.604 M50.15,24.517c1.589,0,3.029,0.645,4.071,1.687
		c1.043,1.043,1.688,2.483,1.688,4.072s-0.645,3.029-1.687,4.071c-1.043,1.043-2.483,1.688-4.072,1.688s-3.029-0.645-4.071-1.687
		c-1.043-1.043-1.688-2.483-1.688-4.072s0.645-3.029,1.687-4.071C47.122,25.162,48.561,24.517,50.15,24.517z M40.95,45.742
		c0.076-2.123,0.871-4.063,2.148-5.583c-0.067-0.071-0.135-0.141-0.204-0.21c-1.562-1.553-3.715-2.512-6.093-2.512
		s-4.531,0.96-6.093,2.512c-1.501,1.492-2.457,3.532-2.543,5.793H40.95z M63.5,24.517c1.589,0,3.029,0.645,4.071,1.687
		c1.043,1.043,1.688,2.483,1.688,4.072s-0.645,3.029-1.687,4.071c-1.043,1.043-2.483,1.688-4.072,1.688
		c-1.589,0-3.029-0.645-4.071-1.687c-1.043-1.043-1.688-2.483-1.688-4.072s0.645-3.029,1.687-4.071
		C60.472,25.162,61.911,24.517,63.5,24.517z M57.009,39.548c1.665-1.655,3.959-2.678,6.491-2.678s4.827,1.023,6.491,2.678
		c1.665,1.656,2.701,3.945,2.715,6.477l0.002,0.285h-13.35h-5.066h-8.284h-5.066h-13.35l0.001-0.285
		c0.014-2.531,1.05-4.821,2.715-6.477c1.665-1.655,3.959-2.678,6.491-2.678c2.532,0,4.827,1.023,6.491,2.678
		c0.062,0.062,0.124,0.124,0.184,0.188c0.06-0.063,0.121-0.126,0.183-0.188c1.665-1.655,3.959-2.678,6.491-2.678
		s4.826,1.023,6.491,2.678c0.062,0.062,0.124,0.124,0.184,0.188C56.886,39.673,56.947,39.61,57.009,39.548z M24.05,53.549h10.777
		c0.175-0.657,0.774-1.142,1.486-1.142c0.712,0,1.312,0.484,1.486,1.142h10.753c0.175-0.657,0.774-1.142,1.486-1.142
		c0.712,0,1.312,0.484,1.486,1.142h10.903c0.175-0.657,0.774-1.142,1.486-1.142c0.712,0,1.312,0.484,1.486,1.142H75.95v0.567H65.441
		c-0.085,0.769-0.737,1.367-1.528,1.367c-0.792,0-1.443-0.598-1.528-1.367H51.566c-0.085,0.769-0.737,1.367-1.528,1.367
		c-0.791,0-1.443-0.598-1.528-1.367H37.841c-0.085,0.769-0.737,1.367-1.528,1.367s-1.443-0.598-1.528-1.367H24.05V53.549z
		 M46.942,26.193h6.418c-0.883-0.695-1.998-1.109-3.209-1.109C48.939,25.084,47.825,25.499,46.942,26.193z M45.21,28.675h9.88
		c-0.233-0.72-0.618-1.37-1.118-1.914h-7.611v-0.034C45.845,27.277,45.448,27.94,45.21,28.675z M45.033,31.156h10.235
		c0.049-0.286,0.074-0.58,0.074-0.88c0-0.354-0.035-0.7-0.103-1.034h-10.17v-0.036c-0.072,0.346-0.111,0.704-0.111,1.071
		C44.959,30.576,44.984,30.87,45.033,31.156z M53.547,34.204h-6.792c0.91,0.787,2.098,1.264,3.396,1.264
		C51.449,35.468,52.636,34.991,53.547,34.204z M46.192,33.637h7.916c0.468-0.551,0.823-1.201,1.029-1.914h-9.975
		C45.37,32.436,45.725,33.086,46.192,33.637z M45.818,38.599h8.666c-1.274-0.739-2.754-1.163-4.333-1.163
		C48.571,37.436,47.091,37.86,45.818,38.599z M43.099,41.08h12.668c0.208-0.321,0.435-0.629,0.681-0.921
		c-0.067-0.071-0.135-0.141-0.204-0.21c-0.283-0.281-0.585-0.543-0.904-0.783H44.962c-0.319,0.24-0.622,0.502-0.904,0.783
		C43.707,40.298,43.386,40.676,43.099,41.08z M54.5,44.128H41.729c-0.12,0.522-0.193,1.061-0.215,1.614H54.3
		C54.32,45.191,54.388,44.651,54.5,44.128z M41.88,43.562h12.762c0.19-0.673,0.456-1.314,0.786-1.914H42.729
		C42.373,42.243,42.086,42.885,41.88,43.562z M36.8,24.517c1.589,0,3.029,0.645,4.071,1.687c1.043,1.043,1.688,2.483,1.688,4.072
		s-0.645,3.029-1.687,4.071c-1.043,1.043-2.483,1.688-4.072,1.688c-1.589,0-3.029-0.645-4.071-1.687
		c-1.043-1.043-1.688-2.483-1.688-4.072s0.645-3.029,1.687-4.071C33.771,25.162,35.211,24.517,36.8,24.517z"/>
</g>
</svg>
