<?xml version="1.0" encoding="utf-8"?>
<!-- Generator: Adobe Illustrator 22.0.1, SVG Export Plug-In . SVG Version: 6.00 Build 0)  -->
<svg version="1.1" id="Layer_1" xmlns="http://www.w3.org/2000/svg" xmlns:xlink="http://www.w3.org/1999/xlink" x="0px" y="0px"
	 viewBox="0 0 100 80" style="enable-background:new 0 0 100 80;" xml:space="preserve">
<style type="text/css">
	.st0{fill:#0000CC;}
</style>
<g>
	<path class="st0" d="M40.5,26.6c-0.9-0.9-2.2-1.5-3.7-1.5s-2.7,0.6-3.7,1.5c-0.9,0.9-1.5,2.2-1.5,3.7c0,1.4,0.6,2.7,1.5,3.7
		c0.9,0.9,2.2,1.5,3.7,1.5s2.7-0.6,3.7-1.5c0.9-0.9,1.5-2.2,1.5-3.7S41.4,27.5,40.5,26.6 M50.2,24.5c1.6,0,3,0.6,4.1,1.7
		c1,1,1.7,2.5,1.7,4.1s-0.6,3-1.7,4.1c-1,1-2.5,1.7-4.1,1.7s-3-0.6-4.1-1.7c-1-1-1.7-2.5-1.7-4.1s0.6-3,1.7-4.1
		C47.1,25.2,48.6,24.5,50.2,24.5z M41,45.7c0.1-2.1,0.9-4.1,2.1-5.6C43,40.1,43,40,42.9,39.9c-1.6-1.6-3.7-2.5-6.1-2.5
		s-4.5,1-6.1,2.5c-1.5,1.5-2.5,3.5-2.5,5.8H41z M63.5,24.5c1.6,0,3,0.6,4.1,1.7c1,1,1.7,2.5,1.7,4.1s-0.6,3-1.7,4.1
		c-1,1-2.5,1.7-4.1,1.7c-1.6,0-3-0.6-4.1-1.7c-1-1-1.7-2.5-1.7-4.1s0.6-3,1.7-4.1C60.5,25.2,61.9,24.5,63.5,24.5z M57,39.5
		c1.7-1.7,4-2.7,6.5-2.7c2.5,0,4.8,1,6.5,2.7c1.7,1.7,2.7,3.9,2.7,6.5l0,0.3H59.4h-5.1H46h-5.1H27.6l0-0.3c0-2.5,1-4.8,2.7-6.5
		c1.7-1.7,4-2.7,6.5-2.7c2.5,0,4.8,1,6.5,2.7c0.1,0.1,0.1,0.1,0.2,0.2c0.1-0.1,0.1-0.1,0.2-0.2c1.7-1.7,4-2.7,6.5-2.7s4.8,1,6.5,2.7
		c0.1,0.1,0.1,0.1,0.2,0.2C56.9,39.7,56.9,39.6,57,39.5z M24,53.5h10.8c0.2-0.7,0.8-1.1,1.5-1.1s1.3,0.5,1.5,1.1h10.8
		c0.2-0.7,0.8-1.1,1.5-1.1s1.3,0.5,1.5,1.1h10.9c0.2-0.7,0.8-1.1,1.5-1.1c0.7,0,1.3,0.5,1.5,1.1h10.6v0.6H65.4
		c-0.1,0.8-0.7,1.4-1.5,1.4c-0.8,0-1.4-0.6-1.5-1.4H51.6c-0.1,0.8-0.7,1.4-1.5,1.4s-1.4-0.6-1.5-1.4H37.8c-0.1,0.8-0.7,1.4-1.5,1.4
		s-1.4-0.6-1.5-1.4H24V53.5z M46.9,26.2h6.4c-0.9-0.7-2-1.1-3.2-1.1C48.9,25.1,47.8,25.5,46.9,26.2z M45.2,28.7h9.9
		c-0.2-0.7-0.6-1.4-1.1-1.9h-7.6v0C45.8,27.3,45.4,27.9,45.2,28.7z M45,31.2h10.2c0-0.3,0.1-0.6,0.1-0.9c0-0.4,0-0.7-0.1-1H45.1v0
		C45,29.6,45,29.9,45,30.3C45,30.6,45,30.9,45,31.2z M53.5,34.2h-6.8c0.9,0.8,2.1,1.3,3.4,1.3S52.6,35,53.5,34.2z M46.2,33.6h7.9
		c0.5-0.6,0.8-1.2,1-1.9h-10C45.4,32.4,45.7,33.1,46.2,33.6z M45.8,38.6h8.7c-1.3-0.7-2.8-1.2-4.3-1.2
		C48.6,37.4,47.1,37.9,45.8,38.6z M43.1,41.1h12.7c0.2-0.3,0.4-0.6,0.7-0.9c-0.1-0.1-0.1-0.1-0.2-0.2c-0.3-0.3-0.6-0.5-0.9-0.8H45
		c-0.3,0.2-0.6,0.5-0.9,0.8C43.7,40.3,43.4,40.7,43.1,41.1z M54.5,44.1H41.7c-0.1,0.5-0.2,1.1-0.2,1.6h12.8
		C54.3,45.2,54.4,44.7,54.5,44.1z M41.9,43.6h12.8c0.2-0.7,0.5-1.3,0.8-1.9H42.7C42.4,42.2,42.1,42.9,41.9,43.6z M36.8,24.5
		c1.6,0,3,0.6,4.1,1.7c1,1,1.7,2.5,1.7,4.1s-0.6,3-1.7,4.1c-1,1-2.5,1.7-4.1,1.7c-1.6,0-3-0.6-4.1-1.7c-1-1-1.7-2.5-1.7-4.1
		s0.6-3,1.7-4.1C33.8,25.2,35.2,24.5,36.8,24.5z"/>
</g>
</svg>
