<svg xmlns="http://www.w3.org/2000/svg" viewBox="0 0 323.76 323.8"><defs><style>.cls-1{font-size:41.1px;}.cls-1,.cls-2{fill:#00c;font-family:IBMPlexSans-Medium, IBM Plex Sans;}.cls-2{font-size:47px;}</style></defs><title>Asset 2</title><g id="Layer_2" data-name="Layer 2"><g id="Layer_1-2" data-name="Layer 1"><text class="cls-1" transform="translate(156.51 39.27) rotate(3.8)">A</text><text class="cls-1" transform="matrix(0.98, 0.21, -0.21, 0.98, 182.61, 41.55)"> </text><text class="cls-1" transform="translate(191.34 42.7) rotate(20.22)">B</text><text class="cls-1" transform="translate(215.52 51.61) rotate(31.69)">E</text><text class="cls-1" transform="translate(235.25 63.7) rotate(42.33)">T</text><text class="cls-1" transform="translate(252.48 79.34) rotate(53.17)">T</text><text class="cls-1" transform="translate(266.09 97.26) rotate(63.85)">E</text><text class="cls-1" transform="translate(276.49 117.86) rotate(75.32)">R</text><text class="cls-1" transform="matrix(0.11, 0.99, -0.99, 0.11, 282.54, 143.07)"> </text><text class="cls-1" transform="matrix(-0.07, 1, -1, -0.07, 284.9, 151.48)">W</text><text class="cls-1" transform="translate(282.04 187.2) rotate(108.24)">A</text><text class="cls-1" transform="translate(274.92 209.59) rotate(118.86)">Y</text><text class="cls-1" transform="translate(262.73 230.74) rotate(126.64)"> </text><text class="cls-1" transform="translate(257.86 238.14) rotate(134.02)">T</text><text class="cls-1" transform="translate(243.23 253.99) rotate(145.33)">O</text><text class="cls-1" transform="matrix(-0.9, 0.44, -0.44, -0.9, 219.67, 269.48)"> </text><text class="cls-1" transform="translate(212.04 273.89) rotate(161.91)">P</text><text class="cls-1" transform="translate(191.03 281.17) rotate(172.7)">A</text><text class="cls-1" transform="translate(167.75 284.41) rotate(-176.86)">Y</text><text class="cls-1" transform="translate(143.41 282.61) rotate(-169.09)"> </text><text class="cls-1" transform="translate(134.63 281.42) rotate(-161.68)">F</text><text class="cls-1" transform="matrix(-0.87, -0.49, 0.49, -0.87, 114.31, 275.23)">O</text><text class="cls-1" transform="matrix(-0.74, -0.67, 0.67, -0.74, 90.11, 261.47)">R</text><text class="cls-1" transform="matrix(-0.64, -0.77, 0.77, -0.64, 71.23, 243.69)"> </text><text class="cls-1" transform="matrix(-0.53, -0.85, 0.85, -0.53, 65.17, 237.26)">E</text><text class="cls-1" transform="translate(52.57 217.93) rotate(-110.58)">D</text><text class="cls-1" transform="translate(43.04 193.01) rotate(-98.01)">U</text><text class="cls-1" transform="matrix(0.07, -1, 1, 0.07, 39.28, 166.45)">C</text><text class="cls-1" transform="translate(40.74 141.89) rotate(-74.29)">A</text><text class="cls-1" transform="matrix(0.44, -0.9, 0.9, 0.44, 46.89, 119.34)">T</text><text class="cls-1" transform="matrix(0.57, -0.82, 0.82, 0.57, 56.82, 99.26)">I</text><text class="cls-1" transform="matrix(0.71, -0.71, 0.71, 0.71, 65.41, 85.8)">O</text><text class="cls-1" transform="translate(84.99 66.04) rotate(-31.93)">N</text><text class="cls-1" transform="translate(109.34 51.65) rotate(-23.23)"> </text><text class="cls-2" transform="matrix(0.97, -0.22, 0.22, 0.97, 116.74, 47.04)">—</text></g></g></svg>