<?xml version="1.0" encoding="utf-8"?>
<!-- Generator: Adobe Illustrator 22.0.1, SVG Export Plug-In . SVG Version: 6.00 Build 0)  -->
<svg version="1.1" id="Layer_1" xmlns="http://www.w3.org/2000/svg" xmlns:xlink="http://www.w3.org/1999/xlink" x="0px" y="0px"
	 viewBox="0 0 200 200" style="enable-background:new 0 0 200 200;" xml:space="preserve">
<style type="text/css">
	.st0{fill-rule:evenodd;clip-rule:evenodd;fill:#0000CC;}
	.st1{fill:none;}
</style>
<path class="st0" d="M159.4,175.4c-8.7,0-16.9,0-25.7,0c-0.5-4.9-1.7-15.9-1.7-15.9s-0.8,0.8-0.8,0.8c0,0-1.1,1.4-1.8,2.2
	c-17.8,20.8-57.9,22.1-76.6,2.3c-9.4-10-13.3-22.5-13.5-35.7C38.8,95.3,39.1,61.4,39,27.5c0-0.4,0.1-0.8,0.3-1.5c9.5,0,19,0,29,0
	c0,1.7,0,3.4,0,5c0,28.8-0.2,57.5,0.1,86.3c0.1,6.9-0.2,15.7,2.1,20.7c2.8,6,8,10.5,14.8,12.3c20.1,5.3,37.8-5.1,42.1-25.5
	c1.7-7.9,2.4-16.1,2.5-24.2c0.3-24.7,0.1-49.5,0.1-74.6c9.8,0,19.4,0,29.2,0C159.4,75.9,159.4,125.3,159.4,175.4z"/>
<line class="st1" x1="174.4" y1="51.6" x2="157.4" y2="51.6"/>
</svg>
